<?xml version="1.0" encoding="UTF-8"?>
<!-- Do not edit this file with editors other than draw.io -->
<!DOCTYPE svg PUBLIC "-//W3C//DTD SVG 1.1//EN" "http://www.w3.org/Graphics/SVG/1.1/DTD/svg11.dtd">
<svg xmlns="http://www.w3.org/2000/svg" style="background: transparent; background-color: transparent; color-scheme: light dark;" xmlns:xlink="http://www.w3.org/1999/xlink" version="1.1" width="92px" height="93px" viewBox="0 0 92 93" content="&lt;mxfile host=&quot;app.diagrams.net&quot; agent=&quot;Mozilla/5.0 (Macintosh; Intel Mac OS X 10_15_7) AppleWebKit/537.36 (KHTML, like Gecko) Chrome/139.0.0.0 Safari/537.36&quot; version=&quot;28.2.7&quot;&gt;&#10;  &lt;diagram name=&quot;Page-1&quot; id=&quot;YzYQpEUnue3fgCIal9Zo&quot;&gt;&#10;    &lt;mxGraphModel dx=&quot;984&quot; dy=&quot;615&quot; grid=&quot;1&quot; gridSize=&quot;10&quot; guides=&quot;1&quot; tooltips=&quot;1&quot; connect=&quot;1&quot; arrows=&quot;1&quot; fold=&quot;1&quot; page=&quot;1&quot; pageScale=&quot;1&quot; pageWidth=&quot;850&quot; pageHeight=&quot;1100&quot; math=&quot;0&quot; shadow=&quot;0&quot;&gt;&#10;      &lt;root&gt;&#10;        &lt;mxCell id=&quot;0&quot; /&gt;&#10;        &lt;mxCell id=&quot;1&quot; parent=&quot;0&quot; /&gt;&#10;        &lt;mxCell id=&quot;dZEqtVLkpey6vBkOgiF8-1&quot; value=&quot;&quot; style=&quot;points=[[0,0,0],[0.25,0,0],[0.5,0,0],[0.75,0,0],[1,0,0],[0,1,0],[0.25,1,0],[0.5,1,0],[0.75,1,0],[1,1,0],[0,0.25,0],[0,0.5,0],[0,0.75,0],[1,0.25,0],[1,0.5,0],[1,0.75,0]];outlineConnect=0;fontColor=#232F3E;fillColor=#FF7900;strokeColor=#ffffff;dashed=0;verticalLabelPosition=bottom;verticalAlign=top;align=center;html=1;fontSize=12;fontStyle=0;aspect=fixed;shape=mxgraph.aws4.resourceIcon;resIcon=mxgraph.aws4.lambda;shadow=1;gradientColor=#422300;gradientDirection=south;&quot; vertex=&quot;1&quot; parent=&quot;1&quot;&gt;&#10;          &lt;mxGeometry x=&quot;400&quot; y=&quot;600&quot; width=&quot;80&quot; height=&quot;80&quot; as=&quot;geometry&quot; /&gt;&#10;        &lt;/mxCell&gt;&#10;      &lt;/root&gt;&#10;    &lt;/mxGraphModel&gt;&#10;  &lt;/diagram&gt;&#10;&lt;/mxfile&gt;&#10;"><defs><linearGradient x1="0%" y1="0%" x2="0%" y2="100%" id="drawio-svg-0Z_Z17HF_n3RbdkDkBKt-gradient-light-dark_ff7900_d66300_-1-light-dark_422300_e3c8aa_-1-s-0"><stop offset="0%" stop-color="#FF7900" stop-opacity="1" style="stop-color: light-dark(rgb(255, 121, 0), rgb(214, 99, 0)); stop-opacity: 1;"/><stop offset="100%" stop-color="#422300" stop-opacity="1" style="stop-color: light-dark(rgb(66, 35, 0), rgb(227, 200, 170)); stop-opacity: 1;"/></linearGradient></defs><g><g data-cell-id="0"><g data-cell-id="1"><g data-cell-id="dZEqtVLkpey6vBkOgiF8-1"><g style="filter: drop-shadow(light-dark(rgba(0, 0, 0, 0.25), rgba(237, 237, 237, 0.25)) 2px 3px 2px);"><path d="M 4 4 L 84 4 L 84 84 L 4 84 Z" fill="url(#drawio-svg-0Z_Z17HF_n3RbdkDkBKt-gradient-light-dark_ff7900_d66300_-1-light-dark_422300_e3c8aa_-1-s-0)" stroke="none" pointer-events="all" style="fill: url(&quot;#drawio-svg-0Z_Z17HF_n3RbdkDkBKt-gradient-light-dark_ff7900_d66300_-1-light-dark_422300_e3c8aa_-1-s-0&quot;);"/><path d="M 30.32 73.71 L 16.13 73.71 L 31.83 40.91 L 38.94 55.55 Z M 32.85 37.77 C 32.66 37.38 32.26 37.13 31.82 37.13 L 31.82 37.13 C 31.38 37.13 30.97 37.38 30.79 37.78 L 13.28 74.36 C 13.11 74.72 13.14 75.13 13.35 75.47 C 13.56 75.8 13.92 76 14.32 76 L 31.05 76 C 31.49 76 31.89 75.75 32.08 75.35 L 41.24 56.03 C 41.39 55.72 41.39 55.36 41.24 55.05 Z M 72.6 73.71 L 58.5 73.71 L 35.88 26.37 C 35.69 25.97 35.28 25.71 34.84 25.71 L 25.62 25.71 L 25.63 14.29 L 43.71 14.29 L 66.22 61.63 C 66.41 62.03 66.82 62.29 67.26 62.29 L 72.6 62.29 Z M 73.74 60 L 67.98 60 L 45.47 12.65 C 45.28 12.25 44.88 12 44.43 12 L 24.48 12 C 23.85 12 23.34 12.51 23.34 13.14 L 23.33 26.86 C 23.33 27.16 23.44 27.45 23.66 27.67 C 23.88 27.88 24.17 28 24.47 28 L 34.12 28 L 56.74 75.35 C 56.93 75.75 57.33 76 57.77 76 L 73.74 76 C 74.37 76 74.89 75.49 74.89 74.86 L 74.89 61.14 C 74.89 60.51 74.37 60 73.74 60 Z" fill="#ffffff" stroke="none" pointer-events="all" style="fill: light-dark(rgb(255, 255, 255), rgb(18, 18, 18));"/></g></g></g></g></g></svg>